<svg width="414" height="736" viewBox="0 0 414 736" fill="none" xmlns="http://www.w3.org/2000/svg">
<rect width="414" height="736" fill="#FCFCFC"/>
<rect width="414" height="126" fill="#021140"/>
<path d="M414 251C327.233 92.1842 178.822 222.58 0 180.845V24L414 30.0132V251Z" fill="#021140"/>
<path d="M214.568 555.092H218.744V556.376H214.568V555.092ZM214.688 558.692H219.428V560H213.128V551.6H219.26V552.908H214.688V558.692ZM222.944 560.084C222.408 560.084 221.892 560.016 221.396 559.88C220.908 559.736 220.52 559.564 220.232 559.364L220.808 558.224C221.096 558.408 221.44 558.56 221.84 558.68C222.24 558.8 222.64 558.86 223.04 558.86C223.512 558.86 223.852 558.796 224.06 558.668C224.276 558.54 224.384 558.368 224.384 558.152C224.384 557.976 224.312 557.844 224.168 557.756C224.024 557.66 223.836 557.588 223.604 557.54C223.372 557.492 223.112 557.448 222.824 557.408C222.544 557.368 222.26 557.316 221.972 557.252C221.692 557.18 221.436 557.08 221.204 556.952C220.972 556.816 220.784 556.636 220.64 556.412C220.496 556.188 220.424 555.892 220.424 555.524C220.424 555.116 220.54 554.764 220.772 554.468C221.004 554.164 221.328 553.932 221.744 553.772C222.168 553.604 222.668 553.52 223.244 553.52C223.676 553.52 224.112 553.568 224.552 553.664C224.992 553.76 225.356 553.896 225.644 554.072L225.068 555.212C224.764 555.028 224.456 554.904 224.144 554.84C223.84 554.768 223.536 554.732 223.232 554.732C222.776 554.732 222.436 554.8 222.212 554.936C221.996 555.072 221.888 555.244 221.888 555.452C221.888 555.644 221.96 555.788 222.104 555.884C222.248 555.98 222.436 556.056 222.668 556.112C222.9 556.168 223.156 556.216 223.436 556.256C223.724 556.288 224.008 556.34 224.288 556.412C224.568 556.484 224.824 556.584 225.056 556.712C225.296 556.832 225.488 557.004 225.632 557.228C225.776 557.452 225.848 557.744 225.848 558.104C225.848 558.504 225.728 558.852 225.488 559.148C225.256 559.444 224.924 559.676 224.492 559.844C224.06 560.004 223.544 560.084 222.944 560.084ZM229.852 560.084C229.236 560.084 228.68 559.948 228.184 559.676C227.696 559.404 227.312 559.024 227.032 558.536C226.752 558.04 226.612 557.46 226.612 556.796C226.612 556.132 226.752 555.556 227.032 555.068C227.312 554.58 227.696 554.2 228.184 553.928C228.68 553.656 229.236 553.52 229.852 553.52C230.404 553.52 230.888 553.64 231.304 553.88C231.728 554.112 232.06 554.468 232.3 554.948C232.548 555.428 232.672 556.044 232.672 556.796C232.672 557.54 232.544 558.156 232.288 558.644C232.04 559.124 231.704 559.484 231.28 559.724C230.856 559.964 230.38 560.084 229.852 560.084ZM230.02 558.8C230.38 558.8 230.704 558.72 230.992 558.56C231.28 558.4 231.508 558.168 231.676 557.864C231.844 557.56 231.928 557.204 231.928 556.796C231.928 556.38 231.844 556.024 231.676 555.728C231.508 555.424 231.28 555.192 230.992 555.032C230.704 554.872 230.38 554.792 230.02 554.792C229.66 554.792 229.336 554.872 229.048 555.032C228.768 555.192 228.544 555.424 228.376 555.728C228.208 556.024 228.124 556.38 228.124 556.796C228.124 557.204 228.208 557.56 228.376 557.864C228.544 558.168 228.768 558.4 229.048 558.56C229.336 558.72 229.66 558.8 230.02 558.8ZM231.904 562.328V558.512L232.024 556.808L231.976 555.104V553.592H233.404V562.328H231.904ZM238.079 560.084C237.535 560.084 237.055 559.984 236.639 559.784C236.223 559.576 235.899 559.264 235.667 558.848C235.435 558.424 235.319 557.892 235.319 557.252V553.592H236.819V557.048C236.819 557.624 236.947 558.056 237.203 558.344C237.467 558.624 237.839 558.764 238.319 558.764C238.671 558.764 238.975 558.692 239.231 558.548C239.495 558.404 239.699 558.188 239.843 557.9C239.995 557.612 240.071 557.256 240.071 556.832V553.592H241.571V560H240.143V558.272L240.395 558.8C240.179 559.216 239.863 559.536 239.447 559.76C239.031 559.976 238.575 560.084 238.079 560.084ZM246.547 560.084C245.835 560.084 245.211 559.944 244.675 559.664C244.147 559.376 243.735 558.984 243.439 558.488C243.151 557.992 243.007 557.428 243.007 556.796C243.007 556.156 243.147 555.592 243.427 555.104C243.715 554.608 244.107 554.22 244.603 553.94C245.107 553.66 245.679 553.52 246.319 553.52C246.943 553.52 247.499 553.656 247.987 553.928C248.475 554.2 248.859 554.584 249.139 555.08C249.419 555.576 249.559 556.16 249.559 556.832C249.559 556.896 249.555 556.968 249.547 557.048C249.547 557.128 249.543 557.204 249.535 557.276H244.195V556.28H248.743L248.155 556.592C248.163 556.224 248.087 555.9 247.927 555.62C247.767 555.34 247.547 555.12 247.267 554.96C246.995 554.8 246.679 554.72 246.319 554.72C245.951 554.72 245.627 554.8 245.347 554.96C245.075 555.12 244.859 555.344 244.699 555.632C244.547 555.912 244.471 556.244 244.471 556.628V556.868C244.471 557.252 244.559 557.592 244.735 557.888C244.911 558.184 245.159 558.412 245.479 558.572C245.799 558.732 246.167 558.812 246.583 558.812C246.943 558.812 247.267 558.756 247.555 558.644C247.843 558.532 248.099 558.356 248.323 558.116L249.127 559.04C248.839 559.376 248.475 559.636 248.035 559.82C247.603 559.996 247.107 560.084 246.547 560.084ZM253.94 560.084C253.268 560.084 252.668 559.944 252.14 559.664C251.62 559.376 251.212 558.984 250.916 558.488C250.62 557.992 250.472 557.428 250.472 556.796C250.472 556.156 250.62 555.592 250.916 555.104C251.212 554.608 251.62 554.22 252.14 553.94C252.668 553.66 253.268 553.52 253.94 553.52C254.564 553.52 255.112 553.648 255.584 553.904C256.064 554.152 256.428 554.52 256.676 555.008L255.524 555.68C255.332 555.376 255.096 555.152 254.816 555.008C254.544 554.864 254.248 554.792 253.928 554.792C253.56 554.792 253.228 554.872 252.932 555.032C252.636 555.192 252.404 555.424 252.236 555.728C252.068 556.024 251.984 556.38 251.984 556.796C251.984 557.212 252.068 557.572 252.236 557.876C252.404 558.172 252.636 558.4 252.932 558.56C253.228 558.72 253.56 558.8 253.928 558.8C254.248 558.8 254.544 558.728 254.816 558.584C255.096 558.44 255.332 558.216 255.524 557.912L256.676 558.584C256.428 559.064 256.064 559.436 255.584 559.7C255.112 559.956 254.564 560.084 253.94 560.084ZM257.914 560V553.592H259.414V560H257.914ZM258.67 552.536C258.39 552.536 258.158 552.448 257.974 552.272C257.798 552.096 257.71 551.884 257.71 551.636C257.71 551.38 257.798 551.168 257.974 551C258.158 550.824 258.39 550.736 258.67 550.736C258.95 550.736 259.178 550.82 259.354 550.988C259.538 551.148 259.63 551.352 259.63 551.6C259.63 551.864 259.542 552.088 259.366 552.272C259.19 552.448 258.958 552.536 258.67 552.536ZM272.787 553.52C273.299 553.52 273.751 553.62 274.143 553.82C274.543 554.02 274.855 554.328 275.079 554.744C275.303 555.152 275.415 555.68 275.415 556.328V560H273.915V556.52C273.915 555.952 273.791 555.528 273.543 555.248C273.295 554.968 272.939 554.828 272.475 554.828C272.147 554.828 271.855 554.9 271.599 555.044C271.351 555.188 271.155 555.4 271.011 555.68C270.875 555.96 270.807 556.316 270.807 556.748V560H269.307V556.52C269.307 555.952 269.183 555.528 268.935 555.248C268.687 554.968 268.331 554.828 267.867 554.828C267.539 554.828 267.247 554.9 266.991 555.044C266.743 555.188 266.547 555.4 266.403 555.68C266.267 555.96 266.199 556.316 266.199 556.748V560H264.699V553.592H266.127V555.296L265.875 554.792C266.091 554.376 266.403 554.06 266.811 553.844C267.227 553.628 267.699 553.52 268.227 553.52C268.827 553.52 269.347 553.668 269.787 553.964C270.235 554.26 270.531 554.708 270.675 555.308L270.087 555.104C270.295 554.624 270.639 554.24 271.119 553.952C271.599 553.664 272.155 553.52 272.787 553.52ZM277.332 560V553.592H278.832V560H277.332ZM278.088 552.536C277.808 552.536 277.576 552.448 277.392 552.272C277.216 552.096 277.128 551.884 277.128 551.636C277.128 551.38 277.216 551.168 277.392 551C277.576 550.824 277.808 550.736 278.088 550.736C278.368 550.736 278.596 550.82 278.772 550.988C278.956 551.148 279.048 551.352 279.048 551.6C279.048 551.864 278.96 552.088 278.784 552.272C278.608 552.448 278.376 552.536 278.088 552.536ZM284.436 553.52C284.948 553.52 285.404 553.62 285.804 553.82C286.212 554.02 286.532 554.328 286.764 554.744C286.996 555.152 287.112 555.68 287.112 556.328V560H285.612V556.52C285.612 555.952 285.476 555.528 285.204 555.248C284.94 554.968 284.568 554.828 284.088 554.828C283.736 554.828 283.424 554.9 283.152 555.044C282.88 555.188 282.668 555.404 282.516 555.692C282.372 555.972 282.3 556.328 282.3 556.76V560H280.8V553.592H282.228V555.32L281.976 554.792C282.2 554.384 282.524 554.072 282.948 553.856C283.38 553.632 283.876 553.52 284.436 553.52ZM292.651 553.52C293.163 553.52 293.619 553.62 294.019 553.82C294.427 554.02 294.747 554.328 294.979 554.744C295.211 555.152 295.327 555.68 295.327 556.328V560H293.827V556.52C293.827 555.952 293.691 555.528 293.419 555.248C293.155 554.968 292.783 554.828 292.303 554.828C291.951 554.828 291.639 554.9 291.367 555.044C291.095 555.188 290.883 555.404 290.731 555.692C290.587 555.972 290.515 556.328 290.515 556.76V560H289.015V551.096H290.515V555.32L290.191 554.792C290.415 554.384 290.739 554.072 291.163 553.856C291.595 553.632 292.091 553.52 292.651 553.52ZM301.178 560V558.704L301.094 558.428V556.16C301.094 555.72 300.962 555.38 300.698 555.14C300.434 554.892 300.034 554.768 299.498 554.768C299.138 554.768 298.782 554.824 298.43 554.936C298.086 555.048 297.794 555.204 297.554 555.404L296.966 554.312C297.31 554.048 297.718 553.852 298.19 553.724C298.67 553.588 299.166 553.52 299.678 553.52C300.606 553.52 301.322 553.744 301.826 554.192C302.338 554.632 302.594 555.316 302.594 556.244V560H301.178ZM299.162 560.084C298.682 560.084 298.262 560.004 297.902 559.844C297.542 559.676 297.262 559.448 297.062 559.16C296.87 558.864 296.774 558.532 296.774 558.164C296.774 557.804 296.858 557.48 297.026 557.192C297.202 556.904 297.486 556.676 297.878 556.508C298.27 556.34 298.79 556.256 299.438 556.256H301.298V557.252H299.546C299.034 557.252 298.69 557.336 298.514 557.504C298.338 557.664 298.25 557.864 298.25 558.104C298.25 558.376 298.358 558.592 298.574 558.752C298.79 558.912 299.09 558.992 299.474 558.992C299.842 558.992 300.17 558.908 300.458 558.74C300.754 558.572 300.966 558.324 301.094 557.996L301.346 558.896C301.202 559.272 300.942 559.564 300.566 559.772C300.198 559.98 299.73 560.084 299.162 560.084ZM309.816 560.084C309.28 560.084 308.764 560.016 308.268 559.88C307.78 559.736 307.392 559.564 307.104 559.364L307.68 558.224C307.968 558.408 308.312 558.56 308.712 558.68C309.112 558.8 309.512 558.86 309.912 558.86C310.384 558.86 310.724 558.796 310.932 558.668C311.148 558.54 311.256 558.368 311.256 558.152C311.256 557.976 311.184 557.844 311.04 557.756C310.896 557.66 310.708 557.588 310.476 557.54C310.244 557.492 309.984 557.448 309.696 557.408C309.416 557.368 309.132 557.316 308.844 557.252C308.564 557.18 308.308 557.08 308.076 556.952C307.844 556.816 307.656 556.636 307.512 556.412C307.368 556.188 307.296 555.892 307.296 555.524C307.296 555.116 307.412 554.764 307.644 554.468C307.876 554.164 308.2 553.932 308.616 553.772C309.04 553.604 309.54 553.52 310.116 553.52C310.548 553.52 310.984 553.568 311.424 553.664C311.864 553.76 312.228 553.896 312.516 554.072L311.94 555.212C311.636 555.028 311.328 554.904 311.016 554.84C310.712 554.768 310.408 554.732 310.104 554.732C309.648 554.732 309.308 554.8 309.084 554.936C308.868 555.072 308.76 555.244 308.76 555.452C308.76 555.644 308.832 555.788 308.976 555.884C309.12 555.98 309.308 556.056 309.54 556.112C309.772 556.168 310.028 556.216 310.308 556.256C310.596 556.288 310.88 556.34 311.16 556.412C311.44 556.484 311.696 556.584 311.928 556.712C312.168 556.832 312.36 557.004 312.504 557.228C312.648 557.452 312.72 557.744 312.72 558.104C312.72 558.504 312.6 558.852 312.36 559.148C312.128 559.444 311.796 559.676 311.364 559.844C310.932 560.004 310.416 560.084 309.816 560.084ZM317.023 560.084C316.311 560.084 315.687 559.944 315.151 559.664C314.623 559.376 314.211 558.984 313.915 558.488C313.627 557.992 313.483 557.428 313.483 556.796C313.483 556.156 313.623 555.592 313.903 555.104C314.191 554.608 314.583 554.22 315.079 553.94C315.583 553.66 316.155 553.52 316.795 553.52C317.419 553.52 317.975 553.656 318.463 553.928C318.951 554.2 319.335 554.584 319.615 555.08C319.895 555.576 320.035 556.16 320.035 556.832C320.035 556.896 320.031 556.968 320.023 557.048C320.023 557.128 320.019 557.204 320.011 557.276H314.671V556.28H319.219L318.631 556.592C318.639 556.224 318.563 555.9 318.403 555.62C318.243 555.34 318.023 555.12 317.743 554.96C317.471 554.8 317.155 554.72 316.795 554.72C316.427 554.72 316.103 554.8 315.823 554.96C315.551 555.12 315.335 555.344 315.175 555.632C315.023 555.912 314.947 556.244 314.947 556.628V556.868C314.947 557.252 315.035 557.592 315.211 557.888C315.387 558.184 315.635 558.412 315.955 558.572C316.275 558.732 316.643 558.812 317.059 558.812C317.419 558.812 317.743 558.756 318.031 558.644C318.319 558.532 318.575 558.356 318.799 558.116L319.603 559.04C319.315 559.376 318.951 559.636 318.511 559.82C318.079 559.996 317.583 560.084 317.023 560.084ZM325.112 553.52C325.624 553.52 326.08 553.62 326.48 553.82C326.888 554.02 327.208 554.328 327.44 554.744C327.672 555.152 327.788 555.68 327.788 556.328V560H326.288V556.52C326.288 555.952 326.152 555.528 325.88 555.248C325.616 554.968 325.244 554.828 324.764 554.828C324.412 554.828 324.1 554.9 323.828 555.044C323.556 555.188 323.344 555.404 323.192 555.692C323.048 555.972 322.976 556.328 322.976 556.76V560H321.476V553.592H322.904V555.32L322.652 554.792C322.876 554.384 323.2 554.072 323.624 553.856C324.056 553.632 324.552 553.52 325.112 553.52ZM333.327 553.52C333.839 553.52 334.295 553.62 334.695 553.82C335.103 554.02 335.423 554.328 335.655 554.744C335.887 555.152 336.003 555.68 336.003 556.328V560H334.503V556.52C334.503 555.952 334.367 555.528 334.095 555.248C333.831 554.968 333.459 554.828 332.979 554.828C332.627 554.828 332.315 554.9 332.043 555.044C331.771 555.188 331.559 555.404 331.407 555.692C331.263 555.972 331.191 556.328 331.191 556.76V560H329.691V551.096H331.191V555.32L330.867 554.792C331.091 554.384 331.415 554.072 331.839 553.856C332.271 553.632 332.767 553.52 333.327 553.52ZM341.854 560V558.704L341.77 558.428V556.16C341.77 555.72 341.638 555.38 341.374 555.14C341.11 554.892 340.71 554.768 340.174 554.768C339.814 554.768 339.458 554.824 339.106 554.936C338.762 555.048 338.47 555.204 338.23 555.404L337.642 554.312C337.986 554.048 338.394 553.852 338.866 553.724C339.346 553.588 339.842 553.52 340.354 553.52C341.282 553.52 341.998 553.744 342.502 554.192C343.014 554.632 343.27 555.316 343.27 556.244V560H341.854ZM339.838 560.084C339.358 560.084 338.938 560.004 338.578 559.844C338.218 559.676 337.938 559.448 337.738 559.16C337.546 558.864 337.45 558.532 337.45 558.164C337.45 557.804 337.534 557.48 337.702 557.192C337.878 556.904 338.162 556.676 338.554 556.508C338.946 556.34 339.466 556.256 340.114 556.256H341.974V557.252H340.222C339.71 557.252 339.366 557.336 339.19 557.504C339.014 557.664 338.926 557.864 338.926 558.104C338.926 558.376 339.034 558.592 339.25 558.752C339.466 558.912 339.766 558.992 340.15 558.992C340.518 558.992 340.846 558.908 341.134 558.74C341.43 558.572 341.642 558.324 341.77 557.996L342.022 558.896C341.878 559.272 341.618 559.564 341.242 559.772C340.874 559.98 340.406 560.084 339.838 560.084Z" fill="#97E7D2"/>
<path d="M106.26 534V525.6H107.244L111.012 531.948H110.484L114.204 525.6H115.188L115.2 534H114.048L114.036 527.412H114.312L111 532.98H110.448L107.112 527.412H107.412V534H106.26ZM120.277 534.072C119.637 534.072 119.069 533.932 118.573 533.652C118.077 533.372 117.685 532.988 117.397 532.5C117.109 532.004 116.965 531.444 116.965 530.82C116.965 530.188 117.109 529.628 117.397 529.14C117.685 528.652 118.077 528.272 118.573 528C119.069 527.72 119.637 527.58 120.277 527.58C120.909 527.58 121.473 527.72 121.969 528C122.473 528.272 122.865 528.652 123.145 529.14C123.433 529.62 123.577 530.18 123.577 530.82C123.577 531.452 123.433 532.012 123.145 532.5C122.865 532.988 122.473 533.372 121.969 533.652C121.473 533.932 120.909 534.072 120.277 534.072ZM120.277 533.064C120.685 533.064 121.049 532.972 121.369 532.788C121.697 532.604 121.953 532.344 122.137 532.008C122.321 531.664 122.413 531.268 122.413 530.82C122.413 530.364 122.321 529.972 122.137 529.644C121.953 529.308 121.697 529.048 121.369 528.864C121.049 528.68 120.685 528.588 120.277 528.588C119.869 528.588 119.505 528.68 119.185 528.864C118.865 529.048 118.609 529.308 118.417 529.644C118.225 529.972 118.129 530.364 118.129 530.82C118.129 531.268 118.225 531.664 118.417 532.008C118.609 532.344 118.865 532.604 119.185 532.788C119.505 532.972 119.869 533.064 120.277 533.064ZM126.994 534.072C126.466 534.072 125.962 534 125.482 533.856C125.01 533.712 124.638 533.536 124.366 533.328L124.846 532.416C125.118 532.6 125.454 532.756 125.854 532.884C126.254 533.012 126.662 533.076 127.078 533.076C127.614 533.076 127.998 533 128.23 532.848C128.47 532.696 128.59 532.484 128.59 532.212C128.59 532.012 128.518 531.856 128.374 531.744C128.23 531.632 128.038 531.548 127.798 531.492C127.566 531.436 127.306 531.388 127.018 531.348C126.73 531.3 126.442 531.244 126.154 531.18C125.866 531.108 125.602 531.012 125.362 530.892C125.122 530.764 124.93 530.592 124.786 530.376C124.642 530.152 124.57 529.856 124.57 529.488C124.57 529.104 124.678 528.768 124.894 528.48C125.11 528.192 125.414 527.972 125.806 527.82C126.206 527.66 126.678 527.58 127.222 527.58C127.638 527.58 128.058 527.632 128.482 527.736C128.914 527.832 129.266 527.972 129.538 528.156L129.046 529.068C128.758 528.876 128.458 528.744 128.146 528.672C127.834 528.6 127.522 528.564 127.21 528.564C126.706 528.564 126.33 528.648 126.082 528.816C125.834 528.976 125.71 529.184 125.71 529.44C125.71 529.656 125.782 529.824 125.926 529.944C126.078 530.056 126.27 530.144 126.502 530.208C126.742 530.272 127.006 530.328 127.294 530.376C127.582 530.416 127.87 530.472 128.158 530.544C128.446 530.608 128.706 530.7 128.938 530.82C129.178 530.94 129.37 531.108 129.514 531.324C129.666 531.54 129.742 531.828 129.742 532.188C129.742 532.572 129.63 532.904 129.406 533.184C129.182 533.464 128.866 533.684 128.458 533.844C128.05 533.996 127.562 534.072 126.994 534.072ZM133.366 534.072C132.726 534.072 132.23 533.9 131.878 533.556C131.526 533.212 131.35 532.72 131.35 532.08V526.248H132.502V532.032C132.502 532.376 132.586 532.64 132.754 532.824C132.93 533.008 133.178 533.1 133.498 533.1C133.858 533.1 134.158 533 134.398 532.8L134.758 533.628C134.582 533.78 134.37 533.892 134.122 533.964C133.882 534.036 133.63 534.072 133.366 534.072ZM130.27 528.588V527.64H134.326V528.588H130.27ZM136.151 534V527.64H137.255V529.368L137.147 528.936C137.323 528.496 137.619 528.16 138.035 527.928C138.451 527.696 138.963 527.58 139.571 527.58V528.696C139.523 528.688 139.475 528.684 139.427 528.684C139.387 528.684 139.347 528.684 139.307 528.684C138.691 528.684 138.203 528.868 137.843 529.236C137.483 529.604 137.303 530.136 137.303 530.832V534H136.151ZM144.47 534V532.656L144.41 532.404V530.112C144.41 529.624 144.266 529.248 143.978 528.984C143.698 528.712 143.274 528.576 142.706 528.576C142.33 528.576 141.962 528.64 141.602 528.768C141.242 528.888 140.938 529.052 140.69 529.26L140.21 528.396C140.538 528.132 140.93 527.932 141.386 527.796C141.85 527.652 142.334 527.58 142.838 527.58C143.71 527.58 144.382 527.792 144.854 528.216C145.326 528.64 145.562 529.288 145.562 530.16V534H144.47ZM142.382 534.072C141.91 534.072 141.494 533.992 141.134 533.832C140.782 533.672 140.51 533.452 140.318 533.172C140.126 532.884 140.03 532.56 140.03 532.2C140.03 531.856 140.11 531.544 140.27 531.264C140.438 530.984 140.706 530.76 141.074 530.592C141.45 530.424 141.954 530.34 142.586 530.34H144.602V531.168H142.634C142.058 531.168 141.67 531.264 141.47 531.456C141.27 531.648 141.17 531.88 141.17 532.152C141.17 532.464 141.294 532.716 141.542 532.908C141.79 533.092 142.134 533.184 142.574 533.184C143.006 533.184 143.382 533.088 143.702 532.896C144.03 532.704 144.266 532.424 144.41 532.056L144.638 532.848C144.486 533.224 144.218 533.524 143.834 533.748C143.45 533.964 142.966 534.072 142.382 534.072ZM147.694 534V527.64H148.798V529.368L148.69 528.936C148.866 528.496 149.162 528.16 149.578 527.928C149.994 527.696 150.506 527.58 151.114 527.58V528.696C151.066 528.688 151.018 528.684 150.97 528.684C150.93 528.684 150.89 528.684 150.85 528.684C150.234 528.684 149.746 528.868 149.386 529.236C149.026 529.604 148.846 530.136 148.846 530.832V534H147.694ZM157.662 534.072C157.134 534.072 156.63 534 156.15 533.856C155.678 533.712 155.306 533.536 155.034 533.328L155.514 532.416C155.786 532.6 156.122 532.756 156.522 532.884C156.922 533.012 157.33 533.076 157.746 533.076C158.282 533.076 158.666 533 158.898 532.848C159.138 532.696 159.258 532.484 159.258 532.212C159.258 532.012 159.186 531.856 159.042 531.744C158.898 531.632 158.706 531.548 158.466 531.492C158.234 531.436 157.974 531.388 157.686 531.348C157.398 531.3 157.11 531.244 156.822 531.18C156.534 531.108 156.27 531.012 156.03 530.892C155.79 530.764 155.598 530.592 155.454 530.376C155.31 530.152 155.238 529.856 155.238 529.488C155.238 529.104 155.346 528.768 155.562 528.48C155.778 528.192 156.082 527.972 156.474 527.82C156.874 527.66 157.346 527.58 157.89 527.58C158.306 527.58 158.726 527.632 159.15 527.736C159.582 527.832 159.934 527.972 160.206 528.156L159.714 529.068C159.426 528.876 159.126 528.744 158.814 528.672C158.502 528.6 158.19 528.564 157.878 528.564C157.374 528.564 156.998 528.648 156.75 528.816C156.502 528.976 156.378 529.184 156.378 529.44C156.378 529.656 156.45 529.824 156.594 529.944C156.746 530.056 156.938 530.144 157.17 530.208C157.41 530.272 157.674 530.328 157.962 530.376C158.25 530.416 158.538 530.472 158.826 530.544C159.114 530.608 159.374 530.7 159.606 530.82C159.846 530.94 160.038 531.108 160.182 531.324C160.334 531.54 160.41 531.828 160.41 532.188C160.41 532.572 160.298 532.904 160.074 533.184C159.85 533.464 159.534 533.684 159.126 533.844C158.718 533.996 158.23 534.072 157.662 534.072ZM164.682 534.072C164.002 534.072 163.402 533.932 162.882 533.652C162.37 533.372 161.97 532.988 161.682 532.5C161.402 532.012 161.262 531.452 161.262 530.82C161.262 530.188 161.398 529.628 161.67 529.14C161.95 528.652 162.33 528.272 162.81 528C163.298 527.72 163.846 527.58 164.454 527.58C165.07 527.58 165.614 527.716 166.086 527.988C166.558 528.26 166.926 528.644 167.19 529.14C167.462 529.628 167.598 530.2 167.598 530.856C167.598 530.904 167.594 530.96 167.586 531.024C167.586 531.088 167.582 531.148 167.574 531.204H162.162V530.376H166.974L166.506 530.664C166.514 530.256 166.43 529.892 166.254 529.572C166.078 529.252 165.834 529.004 165.522 528.828C165.218 528.644 164.862 528.552 164.454 528.552C164.054 528.552 163.698 528.644 163.386 528.828C163.074 529.004 162.83 529.256 162.654 529.584C162.478 529.904 162.39 530.272 162.39 530.688V530.88C162.39 531.304 162.486 531.684 162.678 532.02C162.878 532.348 163.154 532.604 163.506 532.788C163.858 532.972 164.262 533.064 164.718 533.064C165.094 533.064 165.434 533 165.738 532.872C166.05 532.744 166.322 532.552 166.554 532.296L167.19 533.04C166.902 533.376 166.542 533.632 166.11 533.808C165.686 533.984 165.21 534.072 164.682 534.072ZM172.593 527.58C173.113 527.58 173.569 527.68 173.961 527.88C174.361 528.08 174.673 528.384 174.897 528.792C175.121 529.2 175.233 529.716 175.233 530.34V534H174.081V530.472C174.081 529.856 173.929 529.392 173.625 529.08C173.329 528.768 172.909 528.612 172.365 528.612C171.957 528.612 171.601 528.692 171.297 528.852C170.993 529.012 170.757 529.248 170.589 529.56C170.429 529.872 170.349 530.26 170.349 530.724V534H169.197V527.64H170.301V529.356L170.121 528.9C170.329 528.484 170.649 528.16 171.081 527.928C171.513 527.696 172.017 527.58 172.593 527.58ZM180.761 527.58C181.281 527.58 181.737 527.68 182.129 527.88C182.529 528.08 182.841 528.384 183.065 528.792C183.289 529.2 183.401 529.716 183.401 530.34V534H182.249V530.472C182.249 529.856 182.097 529.392 181.793 529.08C181.497 528.768 181.077 528.612 180.533 528.612C180.125 528.612 179.769 528.692 179.465 528.852C179.161 529.012 178.925 529.248 178.757 529.56C178.597 529.872 178.517 530.26 178.517 530.724V534H177.365V525.096H178.517V529.356L178.289 528.9C178.497 528.484 178.817 528.16 179.249 527.928C179.681 527.696 180.185 527.58 180.761 527.58ZM189.481 534V532.656L189.421 532.404V530.112C189.421 529.624 189.277 529.248 188.989 528.984C188.709 528.712 188.285 528.576 187.717 528.576C187.341 528.576 186.973 528.64 186.613 528.768C186.253 528.888 185.949 529.052 185.701 529.26L185.221 528.396C185.549 528.132 185.941 527.932 186.397 527.796C186.861 527.652 187.345 527.58 187.849 527.58C188.721 527.58 189.393 527.792 189.865 528.216C190.337 528.64 190.573 529.288 190.573 530.16V534H189.481ZM187.393 534.072C186.921 534.072 186.505 533.992 186.145 533.832C185.793 533.672 185.521 533.452 185.329 533.172C185.137 532.884 185.041 532.56 185.041 532.2C185.041 531.856 185.121 531.544 185.281 531.264C185.449 530.984 185.717 530.76 186.085 530.592C186.461 530.424 186.965 530.34 187.597 530.34H189.613V531.168H187.645C187.069 531.168 186.681 531.264 186.481 531.456C186.281 531.648 186.181 531.88 186.181 532.152C186.181 532.464 186.305 532.716 186.553 532.908C186.801 533.092 187.145 533.184 187.585 533.184C188.017 533.184 188.393 533.088 188.713 532.896C189.041 532.704 189.277 532.424 189.421 532.056L189.649 532.848C189.497 533.224 189.229 533.524 188.845 533.748C188.461 533.964 187.977 534.072 187.393 534.072Z" fill="#021140"/>
<g clip-path="url(#clip0_898_70)">
<rect x="79" y="521" width="16" height="16" rx="4" fill="white"/>
<rect x="80" y="522" width="14" height="14" rx="3" stroke="#021140" stroke-width="2"/>
<path d="M72 528.938L74.4348 532L80 525" stroke="#021140" stroke-width="2"/>
</g>
<ellipse cx="192.056" cy="282" rx="70.0559" ry="66" fill="#021240"/>
<path d="M216.391 263.933C216.391 278.595 205.331 290.48 191.687 290.48C178.044 290.48 166.983 278.595 166.983 263.933C166.983 249.271 178.044 237.385 191.687 237.385C205.331 237.385 216.391 249.271 216.391 263.933Z" fill="#97E7D2"/>
<path d="M227.453 339.094C227.453 330.185 227.014 330.269 225.205 322.037C223.395 313.806 220.742 306.327 217.398 300.027C214.054 293.727 210.084 288.73 205.714 285.321C201.345 281.911 196.662 280.156 191.933 280.156C187.203 280.156 182.52 281.911 178.151 285.321C173.782 288.73 169.811 293.727 166.467 300.027C163.123 306.327 160.47 313.806 158.661 322.037C156.851 330.269 156.659 330.185 156.659 339.094L163.813 343.285L173.186 346.69L184.039 348L191.933 348L199.579 348L209.446 346.69L219.806 343.285L227.453 339.094Z" fill="#97E7D2"/>
<rect x="68.5" y="392.5" width="263" height="47" rx="15.5" stroke="#021140"/>
<rect x="68.5" y="461.5" width="263" height="46" rx="15.5" stroke="#021140"/>
<path d="M91.947 422.14C90.603 422.14 89.5483 421.762 88.783 421.006C88.027 420.25 87.649 419.158 87.649 417.73V412.2H89.469V417.66C89.469 418.668 89.6837 419.401 90.113 419.858C90.5517 420.315 91.1677 420.544 91.961 420.544C92.7543 420.544 93.3657 420.315 93.795 419.858C94.2243 419.401 94.439 418.668 94.439 417.66V412.2H96.231V417.73C96.231 419.158 95.8483 420.25 95.083 421.006C94.327 421.762 93.2817 422.14 91.947 422.14ZM100.922 422.098C100.297 422.098 99.6945 422.019 99.1159 421.86C98.5465 421.692 98.0939 421.491 97.7579 421.258L98.4299 419.928C98.7659 420.143 99.1672 420.32 99.6339 420.46C100.101 420.6 100.567 420.67 101.034 420.67C101.585 420.67 101.981 420.595 102.224 420.446C102.476 420.297 102.602 420.096 102.602 419.844C102.602 419.639 102.518 419.485 102.35 419.382C102.182 419.27 101.963 419.186 101.692 419.13C101.421 419.074 101.118 419.023 100.782 418.976C100.455 418.929 100.124 418.869 99.7879 418.794C99.4612 418.71 99.1625 418.593 98.8919 418.444C98.6212 418.285 98.4019 418.075 98.2339 417.814C98.0659 417.553 97.9819 417.207 97.9819 416.778C97.9819 416.302 98.1172 415.891 98.3879 415.546C98.6585 415.191 99.0365 414.921 99.5219 414.734C100.017 414.538 100.6 414.44 101.272 414.44C101.776 414.44 102.285 414.496 102.798 414.608C103.311 414.72 103.736 414.879 104.072 415.084L103.4 416.414C103.045 416.199 102.686 416.055 102.322 415.98C101.967 415.896 101.613 415.854 101.258 415.854C100.726 415.854 100.329 415.933 100.068 416.092C99.8159 416.251 99.6899 416.451 99.6899 416.694C99.6899 416.918 99.7739 417.086 99.9419 417.198C100.11 417.31 100.329 417.399 100.6 417.464C100.871 417.529 101.169 417.585 101.496 417.632C101.832 417.669 102.163 417.73 102.49 417.814C102.817 417.898 103.115 418.015 103.386 418.164C103.666 418.304 103.89 418.505 104.058 418.766C104.226 419.027 104.31 419.368 104.31 419.788C104.31 420.255 104.17 420.661 103.89 421.006C103.619 421.351 103.232 421.622 102.728 421.818C102.224 422.005 101.622 422.098 100.922 422.098ZM108.981 422.098C108.346 422.098 107.786 421.981 107.301 421.748C106.816 421.505 106.438 421.141 106.167 420.656C105.896 420.161 105.761 419.541 105.761 418.794V414.524H107.511V418.556C107.511 419.228 107.66 419.732 107.959 420.068C108.267 420.395 108.701 420.558 109.261 420.558C109.672 420.558 110.026 420.474 110.325 420.306C110.633 420.138 110.871 419.886 111.039 419.55C111.216 419.214 111.305 418.799 111.305 418.304V414.524H113.055V422H111.389V419.984L111.683 420.6C111.431 421.085 111.062 421.459 110.577 421.72C110.092 421.972 109.56 422.098 108.981 422.098ZM119.952 422V420.488L119.854 420.166V417.52C119.854 417.007 119.7 416.61 119.392 416.33C119.084 416.041 118.618 415.896 117.992 415.896C117.572 415.896 117.157 415.961 116.746 416.092C116.345 416.223 116.004 416.405 115.724 416.638L115.038 415.364C115.44 415.056 115.916 414.827 116.466 414.678C117.026 414.519 117.605 414.44 118.202 414.44C119.285 414.44 120.12 414.701 120.708 415.224C121.306 415.737 121.604 416.535 121.604 417.618V422H119.952ZM117.6 422.098C117.04 422.098 116.55 422.005 116.13 421.818C115.71 421.622 115.384 421.356 115.15 421.02C114.926 420.675 114.814 420.287 114.814 419.858C114.814 419.438 114.912 419.06 115.108 418.724C115.314 418.388 115.645 418.122 116.102 417.926C116.56 417.73 117.166 417.632 117.922 417.632H120.092V418.794H118.048C117.451 418.794 117.05 418.892 116.844 419.088C116.639 419.275 116.536 419.508 116.536 419.788C116.536 420.105 116.662 420.357 116.914 420.544C117.166 420.731 117.516 420.824 117.964 420.824C118.394 420.824 118.776 420.726 119.112 420.53C119.458 420.334 119.705 420.045 119.854 419.662L120.148 420.712C119.98 421.151 119.677 421.491 119.238 421.734C118.809 421.977 118.263 422.098 117.6 422.098ZM117.18 413.502L119.07 411.584H121.128L118.692 413.502H117.18ZM123.85 422V414.524H125.516V416.582L125.32 415.98C125.544 415.476 125.894 415.093 126.37 414.832C126.855 414.571 127.457 414.44 128.176 414.44V416.106C128.101 416.087 128.031 416.078 127.966 416.078C127.901 416.069 127.835 416.064 127.77 416.064C127.107 416.064 126.58 416.26 126.188 416.652C125.796 417.035 125.6 417.609 125.6 418.374V422H123.85ZM129.661 422V414.524H131.411V422H129.661ZM130.543 413.292C130.216 413.292 129.945 413.189 129.731 412.984C129.525 412.779 129.423 412.531 129.423 412.242C129.423 411.943 129.525 411.696 129.731 411.5C129.945 411.295 130.216 411.192 130.543 411.192C130.869 411.192 131.135 411.29 131.341 411.486C131.555 411.673 131.663 411.911 131.663 412.2C131.663 412.508 131.56 412.769 131.355 412.984C131.149 413.189 130.879 413.292 130.543 413.292ZM137.068 422.098C136.302 422.098 135.621 421.935 135.024 421.608C134.426 421.272 133.955 420.815 133.61 420.236C133.264 419.657 133.092 418.999 133.092 418.262C133.092 417.515 133.264 416.857 133.61 416.288C133.955 415.709 134.426 415.257 135.024 414.93C135.621 414.603 136.302 414.44 137.068 414.44C137.842 414.44 138.528 414.603 139.126 414.93C139.732 415.257 140.204 415.705 140.54 416.274C140.885 416.843 141.058 417.506 141.058 418.262C141.058 418.999 140.885 419.657 140.54 420.236C140.204 420.815 139.732 421.272 139.126 421.608C138.528 421.935 137.842 422.098 137.068 422.098ZM137.068 420.6C137.497 420.6 137.88 420.507 138.216 420.32C138.552 420.133 138.813 419.863 139 419.508C139.196 419.153 139.294 418.738 139.294 418.262C139.294 417.777 139.196 417.361 139 417.016C138.813 416.661 138.552 416.391 138.216 416.204C137.88 416.017 137.502 415.924 137.082 415.924C136.652 415.924 136.27 416.017 135.934 416.204C135.607 416.391 135.346 416.661 135.15 417.016C134.954 417.361 134.856 417.777 134.856 418.262C134.856 418.738 134.954 419.153 135.15 419.508C135.346 419.863 135.607 420.133 135.934 420.32C136.27 420.507 136.648 420.6 137.068 420.6Z" fill="#D9D9D9"/>
<path d="M87.7612 490.14C86.9959 490.14 86.2632 490.033 85.5632 489.818C84.8632 489.594 84.3079 489.309 83.8972 488.964L84.5272 487.55C84.9192 487.858 85.4046 488.115 85.9832 488.32C86.5619 488.525 87.1546 488.628 87.7612 488.628C88.2746 488.628 88.6899 488.572 89.0072 488.46C89.3246 488.348 89.5579 488.199 89.7072 488.012C89.8566 487.816 89.9312 487.597 89.9312 487.354C89.9312 487.055 89.8239 486.817 89.6092 486.64C89.3946 486.453 89.1146 486.309 88.7692 486.206C88.4332 486.094 88.0552 485.991 87.6352 485.898C87.2246 485.805 86.8092 485.697 86.3892 485.576C85.9786 485.445 85.6006 485.282 85.2552 485.086C84.9192 484.881 84.6439 484.61 84.4292 484.274C84.2146 483.938 84.1072 483.509 84.1072 482.986C84.1072 482.454 84.2472 481.969 84.5272 481.53C84.8166 481.082 85.2506 480.727 85.8292 480.466C86.4172 480.195 87.1592 480.06 88.0552 480.06C88.6432 480.06 89.2266 480.135 89.8052 480.284C90.3839 480.433 90.8879 480.648 91.3172 480.928L90.7432 482.342C90.3046 482.081 89.8519 481.889 89.3852 481.768C88.9186 481.637 88.4706 481.572 88.0412 481.572C87.5372 481.572 87.1266 481.633 86.8092 481.754C86.5012 481.875 86.2726 482.034 86.1232 482.23C85.9832 482.426 85.9132 482.65 85.9132 482.902C85.9132 483.201 86.0159 483.443 86.2212 483.63C86.4359 483.807 86.7112 483.947 87.0472 484.05C87.3926 484.153 87.7752 484.255 88.1952 484.358C88.6152 484.451 89.0306 484.559 89.4412 484.68C89.8612 484.801 90.2392 484.96 90.5752 485.156C90.9206 485.352 91.1959 485.618 91.4012 485.954C91.6159 486.29 91.7232 486.715 91.7232 487.228C91.7232 487.751 91.5786 488.236 91.2892 488.684C91.0092 489.123 90.5752 489.477 89.9872 489.748C89.3992 490.009 88.6572 490.14 87.7612 490.14ZM96.8739 490.098C96.0432 490.098 95.3152 489.935 94.6899 489.608C94.0739 489.272 93.5932 488.815 93.2479 488.236C92.9119 487.657 92.7439 486.999 92.7439 486.262C92.7439 485.515 92.9072 484.857 93.2339 484.288C93.5699 483.709 94.0272 483.257 94.6059 482.93C95.1939 482.603 95.8612 482.44 96.6079 482.44C97.3359 482.44 97.9846 482.599 98.5539 482.916C99.1232 483.233 99.5712 483.681 99.8979 484.26C100.225 484.839 100.388 485.52 100.388 486.304C100.388 486.379 100.383 486.463 100.374 486.556C100.374 486.649 100.369 486.738 100.36 486.822H94.1299V485.66H99.4359L98.7499 486.024C98.7592 485.595 98.6706 485.217 98.4839 484.89C98.2972 484.563 98.0406 484.307 97.7139 484.12C97.3966 483.933 97.0279 483.84 96.6079 483.84C96.1786 483.84 95.8006 483.933 95.4739 484.12C95.1566 484.307 94.9046 484.568 94.7179 484.904C94.5406 485.231 94.4519 485.618 94.4519 486.066V486.346C94.4519 486.794 94.5546 487.191 94.7599 487.536C94.9652 487.881 95.2546 488.147 95.6279 488.334C96.0012 488.521 96.4306 488.614 96.9159 488.614C97.3359 488.614 97.7139 488.549 98.0499 488.418C98.3859 488.287 98.6846 488.082 98.9459 487.802L99.8839 488.88C99.5479 489.272 99.1232 489.575 98.6099 489.79C98.1059 489.995 97.5272 490.098 96.8739 490.098ZM106.311 482.44C106.908 482.44 107.44 482.557 107.907 482.79C108.383 483.023 108.756 483.383 109.027 483.868C109.298 484.344 109.433 484.96 109.433 485.716V490H107.683V485.94C107.683 485.277 107.524 484.783 107.207 484.456C106.899 484.129 106.465 483.966 105.905 483.966C105.494 483.966 105.13 484.05 104.813 484.218C104.496 484.386 104.248 484.638 104.071 484.974C103.903 485.301 103.819 485.716 103.819 486.22V490H102.069V482.524H103.735V484.54L103.441 483.924C103.702 483.448 104.08 483.084 104.575 482.832C105.079 482.571 105.658 482.44 106.311 482.44ZM115.895 482.44C116.492 482.44 117.024 482.557 117.491 482.79C117.967 483.023 118.34 483.383 118.611 483.868C118.882 484.344 119.017 484.96 119.017 485.716V490H117.267V485.94C117.267 485.277 117.108 484.783 116.791 484.456C116.483 484.129 116.049 483.966 115.489 483.966C115.078 483.966 114.714 484.05 114.397 484.218C114.08 484.386 113.832 484.638 113.655 484.974C113.487 485.301 113.403 485.716 113.403 486.22V490H111.653V479.612H113.403V484.54L113.025 483.924C113.286 483.448 113.664 483.084 114.159 482.832C114.663 482.571 115.242 482.44 115.895 482.44ZM125.843 490V488.488L125.745 488.166V485.52C125.745 485.007 125.591 484.61 125.283 484.33C124.975 484.041 124.508 483.896 123.883 483.896C123.463 483.896 123.048 483.961 122.637 484.092C122.236 484.223 121.895 484.405 121.615 484.638L120.929 483.364C121.33 483.056 121.806 482.827 122.357 482.678C122.917 482.519 123.496 482.44 124.093 482.44C125.176 482.44 126.011 482.701 126.599 483.224C127.196 483.737 127.495 484.535 127.495 485.618V490H125.843ZM123.491 490.098C122.931 490.098 122.441 490.005 122.021 489.818C121.601 489.622 121.274 489.356 121.041 489.02C120.817 488.675 120.705 488.287 120.705 487.858C120.705 487.438 120.803 487.06 120.999 486.724C121.204 486.388 121.536 486.122 121.993 485.926C122.45 485.73 123.057 485.632 123.813 485.632H125.983V486.794H123.939C123.342 486.794 122.94 486.892 122.735 487.088C122.53 487.275 122.427 487.508 122.427 487.788C122.427 488.105 122.553 488.357 122.805 488.544C123.057 488.731 123.407 488.824 123.855 488.824C124.284 488.824 124.667 488.726 125.003 488.53C125.348 488.334 125.596 488.045 125.745 487.662L126.039 488.712C125.871 489.151 125.568 489.491 125.129 489.734C124.7 489.977 124.154 490.098 123.491 490.098Z" fill="#D9D9D9"/>
<path d="M164.277 613.64H171.017V616.16H164.277V613.64ZM164.517 619.4H172.137V622H161.297V608H171.877V610.6H164.517V619.4ZM181.035 611.08C181.888 611.08 182.648 611.253 183.315 611.6C183.995 611.933 184.528 612.453 184.915 613.16C185.301 613.853 185.495 614.747 185.495 615.84V622H182.375V616.32C182.375 615.453 182.181 614.813 181.795 614.4C181.421 613.987 180.888 613.78 180.195 613.78C179.701 613.78 179.255 613.887 178.855 614.1C178.468 614.3 178.161 614.613 177.935 615.04C177.721 615.467 177.615 616.013 177.615 616.68V622H174.495V611.24H177.475V614.22L176.915 613.32C177.301 612.6 177.855 612.047 178.575 611.66C179.295 611.273 180.115 611.08 181.035 611.08ZM192.723 622.16C191.456 622.16 190.469 621.84 189.763 621.2C189.056 620.547 188.703 619.58 188.703 618.3V608.86H191.823V618.26C191.823 618.713 191.943 619.067 192.183 619.32C192.423 619.56 192.749 619.68 193.163 619.68C193.656 619.68 194.076 619.547 194.423 619.28L195.263 621.48C194.943 621.707 194.556 621.88 194.103 622C193.663 622.107 193.203 622.16 192.723 622.16ZM187.043 613.88V611.48H194.503V613.88H187.043ZM197.014 622V611.24H199.994V614.28L199.574 613.4C199.894 612.64 200.408 612.067 201.114 611.68C201.821 611.28 202.681 611.08 203.694 611.08V613.96C203.561 613.947 203.441 613.94 203.334 613.94C203.228 613.927 203.114 613.92 202.994 613.92C202.141 613.92 201.448 614.167 200.914 614.66C200.394 615.14 200.134 615.893 200.134 616.92V622H197.014ZM211.446 622V619.9L211.246 619.44V615.68C211.246 615.013 211.04 614.493 210.626 614.12C210.226 613.747 209.606 613.56 208.766 613.56C208.193 613.56 207.626 613.653 207.066 613.84C206.52 614.013 206.053 614.253 205.666 614.56L204.546 612.38C205.133 611.967 205.84 611.647 206.666 611.42C207.493 611.193 208.333 611.08 209.186 611.08C210.826 611.08 212.1 611.467 213.006 612.24C213.913 613.013 214.366 614.22 214.366 615.86V622H211.446ZM208.166 622.16C207.326 622.16 206.606 622.02 206.006 621.74C205.406 621.447 204.946 621.053 204.626 620.56C204.306 620.067 204.146 619.513 204.146 618.9C204.146 618.26 204.3 617.7 204.606 617.22C204.926 616.74 205.426 616.367 206.106 616.1C206.786 615.82 207.673 615.68 208.766 615.68H211.626V617.5H209.106C208.373 617.5 207.866 617.62 207.586 617.86C207.32 618.1 207.186 618.4 207.186 618.76C207.186 619.16 207.34 619.48 207.646 619.72C207.966 619.947 208.4 620.06 208.946 620.06C209.466 620.06 209.933 619.94 210.346 619.7C210.76 619.447 211.06 619.08 211.246 618.6L211.726 620.04C211.5 620.733 211.086 621.26 210.486 621.62C209.886 621.98 209.113 622.16 208.166 622.16ZM217.19 622V611.24H220.17V614.28L219.75 613.4C220.07 612.64 220.583 612.067 221.29 611.68C221.997 611.28 222.857 611.08 223.87 611.08V613.96C223.737 613.947 223.617 613.94 223.51 613.94C223.403 613.927 223.29 613.92 223.17 613.92C222.317 613.92 221.623 614.167 221.09 614.66C220.57 615.14 220.31 615.893 220.31 616.92V622H217.19Z" fill="white"/>
<rect x="115" y="603" width="169" height="44" rx="16" fill="#021140"/>
<path d="M174.121 624.312H179.513V626.328H174.121V624.312ZM174.313 628.92H180.409V631H171.737V619.8H180.201V621.88H174.313V628.92ZM187.608 622.264C188.29 622.264 188.898 622.403 189.432 622.68C189.976 622.947 190.402 623.363 190.712 623.928C191.021 624.483 191.176 625.197 191.176 626.072V631H188.68V626.456C188.68 625.763 188.525 625.251 188.216 624.92C187.917 624.589 187.49 624.424 186.936 624.424C186.541 624.424 186.184 624.509 185.864 624.68C185.554 624.84 185.309 625.091 185.128 625.432C184.957 625.773 184.872 626.211 184.872 626.744V631H182.376V622.392H184.76V624.776L184.312 624.056C184.621 623.48 185.064 623.037 185.64 622.728C186.216 622.419 186.872 622.264 187.608 622.264ZM197.038 631.128C196.025 631.128 195.236 630.872 194.67 630.36C194.105 629.837 193.822 629.064 193.822 628.04V620.488H196.318V628.008C196.318 628.371 196.414 628.653 196.606 628.856C196.798 629.048 197.06 629.144 197.39 629.144C197.785 629.144 198.121 629.037 198.398 628.824L199.07 630.584C198.814 630.765 198.505 630.904 198.142 631C197.79 631.085 197.422 631.128 197.038 631.128ZM192.494 624.504V622.584H198.462V624.504H192.494ZM200.551 631V622.392H202.935V624.824L202.599 624.12C202.855 623.512 203.266 623.053 203.831 622.744C204.397 622.424 205.085 622.264 205.895 622.264V624.568C205.789 624.557 205.693 624.552 205.607 624.552C205.522 624.541 205.431 624.536 205.335 624.536C204.653 624.536 204.098 624.733 203.671 625.128C203.255 625.512 203.047 626.115 203.047 626.936V631H200.551ZM212.177 631V629.32L212.017 628.952V625.944C212.017 625.411 211.852 624.995 211.521 624.696C211.201 624.397 210.705 624.248 210.033 624.248C209.574 624.248 209.121 624.323 208.673 624.472C208.236 624.611 207.862 624.803 207.553 625.048L206.657 623.304C207.126 622.973 207.692 622.717 208.353 622.536C209.014 622.355 209.686 622.264 210.369 622.264C211.681 622.264 212.7 622.573 213.425 623.192C214.15 623.811 214.513 624.776 214.513 626.088V631H212.177ZM209.553 631.128C208.881 631.128 208.305 631.016 207.825 630.792C207.345 630.557 206.977 630.243 206.721 629.848C206.465 629.453 206.337 629.011 206.337 628.52C206.337 628.008 206.46 627.56 206.705 627.176C206.961 626.792 207.361 626.493 207.905 626.28C208.449 626.056 209.158 625.944 210.033 625.944H212.321V627.4H210.305C209.718 627.4 209.313 627.496 209.089 627.688C208.876 627.88 208.769 628.12 208.769 628.408C208.769 628.728 208.892 628.984 209.137 629.176C209.393 629.357 209.74 629.448 210.177 629.448C210.593 629.448 210.966 629.352 211.297 629.16C211.628 628.957 211.868 628.664 212.017 628.28L212.401 629.432C212.22 629.987 211.889 630.408 211.409 630.696C210.929 630.984 210.31 631.128 209.553 631.128ZM216.852 631V622.392H219.236V624.824L218.9 624.12C219.156 623.512 219.567 623.053 220.132 622.744C220.697 622.424 221.385 622.264 222.196 622.264V624.568C222.089 624.557 221.993 624.552 221.908 624.552C221.823 624.541 221.732 624.536 221.636 624.536C220.953 624.536 220.399 624.733 219.972 625.128C219.556 625.512 219.348 626.115 219.348 626.936V631H216.852Z" fill="#F2F2F2"/>
<g clip-path="url(#clip1_898_70)">
<path d="M306.5 56.5849C314.72 56.5849 321.384 49.3835 321.384 40.5C321.384 31.6166 314.72 24.4151 306.5 24.4151C298.28 24.4151 291.616 31.6166 291.616 40.5C291.616 49.3835 298.28 56.5849 306.5 56.5849Z" fill="#3CDBB2"/>
<mask id="mask0_898_70" style="mask-type:luminance" maskUnits="userSpaceOnUse" x="291" y="24" width="31" height="33">
<path d="M306.5 56.5849C314.72 56.5849 321.384 49.3835 321.384 40.5C321.384 31.6166 314.72 24.4151 306.5 24.4151C298.28 24.4151 291.616 31.6166 291.616 40.5C291.616 49.3835 298.28 56.5849 306.5 56.5849Z" fill="white"/>
</mask>
<g mask="url(#mask0_898_70)">
<path d="M306.907 57.0267C314.854 48.02 315.344 43.1667 314.073 40.3689C313.013 38.0371 310.642 37.3613 308.997 33.7627C307.068 29.5387 307.289 25.7343 307.503 23.9976L302.801 24.3062C302.587 26.0026 302.366 29.7203 304.292 33.8474C305.933 37.3633 308.301 38.0229 309.361 40.3023C310.632 43.0376 310.142 47.778 302.206 56.5789L306.909 57.0247L306.907 57.0267Z" fill="#FCFCFC" stroke="#FCFCFC" stroke-miterlimit="10"/>
<path d="M309.466 40.032C314.85 42.1501 316.639 41.321 317.214 40.0361C317.693 38.9649 317.226 37.5812 317.964 35.9231C318.83 33.9765 320.184 33.2422 320.838 32.9659L319.355 30.5917C318.717 30.86 317.392 31.574 316.558 33.4984C315.848 35.1364 316.319 36.5141 315.856 37.5731C315.302 38.8439 313.551 39.6488 308.24 37.4904L309.468 40.034L309.466 40.032Z" fill="#FCFCFC" stroke="#FCFCFC" stroke-miterlimit="10"/>
<path d="M290.821 36.5282C293.973 42.5979 296.45 44.4981 298.196 45.0306C299.653 45.4744 300.496 44.8551 302.744 45.5389C305.383 46.3398 307.358 47.7699 308.236 48.4638L309.037 46.6524C308.179 45.9726 306.251 44.5747 303.665 43.8062C301.462 43.1526 300.626 43.7759 299.199 43.3483C297.488 42.8379 295.07 40.9781 292.024 34.9851L290.823 36.5282H290.821Z" fill="#FCFCFC" stroke="#FCFCFC" stroke-miterlimit="10"/>
</g>
</g>
<g clip-path="url(#clip2_898_70)">
<path d="M332.767 36.0255C333.944 35.1684 335.481 34.7399 337.379 34.7399C339.276 34.7399 340.819 35.164 342.009 36.0109C343.199 36.8579 343.794 38.0607 343.794 39.617V44.7603C343.794 46.2774 343.199 47.4701 342.009 48.3372C340.819 49.2043 339.275 49.6373 337.379 49.6373C335.483 49.6373 333.938 49.2334 332.748 48.4256V59.4384C332.748 59.8121 332.512 60 332.041 60H331.706C331.235 60 331 59.8121 331 59.4384V39.617C331 38.0797 331.588 36.8825 332.767 36.0255ZM340.727 37.0459C339.846 36.4551 338.736 36.1586 337.399 36.1586C336.061 36.1586 334.95 36.4596 334.069 37.0604C333.189 37.6612 332.748 38.5239 332.748 39.6472V46.8301C334.26 47.7565 335.749 48.2197 337.212 48.2197C338.674 48.2197 339.846 47.9143 340.727 47.3034C341.607 46.6925 342.047 45.8254 342.047 44.7021V39.6472C342.047 38.5048 341.607 37.6366 340.727 37.0459Z" fill="#FCFCFC"/>
<path d="M347.82 28H348.118C348.59 28 348.826 28.188 348.826 28.5617V45.0254C348.826 47.1344 349.954 48.1884 352.21 48.1884H352.805C353.003 48.1884 353.171 48.2477 353.307 48.3652C353.444 48.4838 353.511 48.6113 353.511 48.7489V48.985C353.511 49.3799 353.065 49.5769 352.172 49.5769C350.486 49.5769 349.208 49.192 348.341 48.4245C347.473 47.6558 347.051 46.5325 347.076 45.0545V28.5617C347.076 28.188 347.324 28 347.82 28Z" fill="#FCFCFC"/>
<path d="M356.371 34.7399H356.669C357.166 34.7399 357.413 34.9368 357.413 35.3307V44.6719C357.413 45.8344 357.779 46.7115 358.51 47.3023C359.242 47.893 360.277 48.1895 361.616 48.1895C362.955 48.1895 364.109 47.7655 365.075 46.9185C365.299 46.7026 365.533 46.5941 365.781 46.5941C366.252 46.5941 366.489 46.8111 366.489 47.2441C366.489 47.4209 366.427 47.5798 366.303 47.7174C365.806 48.269 365.113 48.7176 364.22 49.0622C363.328 49.4068 362.384 49.5791 361.394 49.5791C359.683 49.5791 358.301 49.1506 357.247 48.2936C356.194 47.4365 355.666 46.2394 355.666 44.7021V35.3318C355.666 34.938 355.901 34.741 356.372 34.741L356.371 34.7399ZM367.38 34.7992H367.752C368.223 34.7992 368.459 34.9961 368.459 35.39V46.1197C368.459 46.8883 368.539 47.4153 368.701 47.7006C368.863 47.9859 369.178 48.1783 369.649 48.2768L370.058 48.3652C370.431 48.4245 370.617 48.5532 370.617 48.7489V49.0745C370.617 49.4102 370.369 49.5769 369.873 49.5769C368.657 49.5769 367.821 49.2916 367.362 48.7199C366.903 48.1493 366.674 47.2721 366.674 46.0895V35.3889C366.674 34.995 366.909 34.7981 367.382 34.7981L367.38 34.7992Z" fill="#FCFCFC"/>
<path d="M379.995 34.7399C380.466 34.7399 380.702 34.9368 380.702 35.3306V35.5376C380.702 35.6954 380.633 35.833 380.498 35.9516C380.362 36.0702 380.194 36.1284 379.996 36.1284C378.582 36.1284 377.454 36.4148 376.612 36.9854C375.768 37.5571 375.347 38.4343 375.347 39.6158V48.9861C375.347 49.164 375.273 49.3061 375.124 49.4146C374.975 49.5231 374.802 49.578 374.603 49.578H374.343C374.145 49.578 373.97 49.5243 373.823 49.4146C373.673 49.3061 373.599 49.164 373.599 48.9861V39.6158C373.599 38.0002 374.17 36.7829 375.309 35.965C376.45 35.1471 378.011 34.7388 379.996 34.7388L379.995 34.7399Z" fill="#FCFCFC"/>
<path d="M382.453 31.8253C382.66 31.6855 383.136 31.6161 383.88 31.6161C384.624 31.6161 385.109 31.6944 385.337 31.8499C385.565 32.0066 385.677 32.3299 385.677 32.8233V33.1433C385.677 33.7016 385.563 34.0552 385.337 34.2029C385.109 34.3505 384.624 34.4244 383.88 34.4244C383.136 34.4244 382.66 34.3505 382.453 34.2029C382.247 34.0552 382.144 33.7016 382.144 33.1433V32.8233C382.144 32.2975 382.247 31.9652 382.453 31.8253ZM383.662 37.3054H384.189C384.437 37.3054 384.603 37.3468 384.686 37.4285C384.767 37.5113 384.809 37.6343 384.809 37.7977V49.1528C384.809 49.3005 384.748 49.4202 384.624 49.5097C384.5 49.6004 384.355 49.6451 384.189 49.6451H383.662C383.496 49.6451 383.352 49.6004 383.227 49.5097C383.103 49.4202 383.041 49.3005 383.041 49.1528V37.7977C383.041 37.584 383.098 37.4486 383.212 37.3904C383.324 37.3334 383.475 37.3043 383.66 37.3043L383.662 37.3054ZM384.452 32.5637C384.359 32.5067 384.174 32.4776 383.894 32.4776C383.614 32.4776 383.434 32.5022 383.351 32.5514C383.268 32.6007 383.227 32.7159 383.227 32.896V33.1422C383.227 33.3234 383.268 33.4376 383.351 33.4868C383.432 33.536 383.619 33.5606 383.909 33.5606C384.199 33.5606 384.385 33.536 384.468 33.4868C384.551 33.4376 384.591 33.3223 384.591 33.1422V32.896C384.591 32.7316 384.545 32.6219 384.452 32.5637Z" fill="#FCFCFC"/>
<path d="M388.776 31.8253C388.983 31.6855 389.458 31.6161 390.202 31.6161C390.946 31.6161 391.432 31.6944 391.66 31.8499C391.887 32.0066 392 32.3299 392 32.8233V33.1433C392 33.7016 391.886 34.0552 391.66 34.2029C391.432 34.3505 390.946 34.4244 390.202 34.4244C389.458 34.4244 388.983 34.3505 388.776 34.2029C388.569 34.0552 388.467 33.7016 388.467 33.1433V32.8233C388.467 32.2975 388.569 31.9652 388.776 31.8253ZM389.984 37.3054H390.512C390.759 37.3054 390.925 37.3468 391.008 37.4285C391.09 37.5113 391.132 37.6343 391.132 37.7977V49.1528C391.132 49.3005 391.07 49.4202 390.946 49.5097C390.823 49.6004 390.678 49.6451 390.512 49.6451H389.984C389.818 49.6451 389.675 49.6004 389.55 49.5097C389.426 49.4202 389.364 49.3005 389.364 49.1528V37.7977C389.364 37.584 389.42 37.4486 389.534 37.3904C389.647 37.3334 389.797 37.3043 389.983 37.3043L389.984 37.3054ZM390.775 32.5637C390.682 32.5067 390.496 32.4776 390.216 32.4776C389.937 32.4776 389.756 32.5022 389.673 32.5514C389.59 32.6007 389.55 32.7159 389.55 32.896V33.1422C389.55 33.3234 389.59 33.4376 389.673 33.4868C389.755 33.536 389.942 33.5606 390.232 33.5606C390.522 33.5606 390.707 33.536 390.79 33.4868C390.873 33.4376 390.914 33.3223 390.914 33.1422V32.896C390.914 32.7316 390.868 32.6219 390.775 32.5637Z" fill="#FCFCFC"/>
<path d="M385.163 33.0874C385.151 32.7853 385.14 32.4843 385.129 32.1822C385.537 32.811 385.137 33.5193 384.096 34.0093C383.13 33.9411 382.323 33.5349 382.524 33.14C382.725 32.745 384.071 32.5179 384.797 32.7898C385.523 33.0605 384.881 33.6871 383.919 33.6132C383.465 33.3212 382.995 33.0113 382.946 32.6645C382.895 32.3176 383.431 31.9305 384.269 31.8958C385.108 31.8611 385.814 32.3635 385.164 32.585" fill="#FCFCFC"/>
<path d="M391.254 32.9531C391.243 32.651 391.232 32.35 391.221 32.048C391.629 32.6767 391.229 33.385 390.188 33.875C389.222 33.8068 388.415 33.4006 388.616 33.0057C388.817 32.6107 390.163 32.3836 390.889 32.6555C391.615 32.9263 390.973 33.5528 390.011 33.479C389.557 33.1869 389.087 32.877 389.038 32.5302C388.987 32.1833 389.523 31.7962 390.361 31.7615C391.2 31.7269 391.906 32.2292 391.256 32.4507" fill="#FCFCFC"/>
<rect x="382" y="31" width="4" height="4" rx="1" fill="#3CDBB2"/>
<rect x="388" y="31" width="4" height="4" rx="1" fill="#3CDBB2"/>
</g>
<defs>
<clipPath id="clip0_898_70">
<rect x="79" y="521" width="16" height="16" rx="4" fill="white"/>
</clipPath>
<clipPath id="clip1_898_70">
<rect width="31" height="33" fill="white" transform="translate(291 24)"/>
</clipPath>
<clipPath id="clip2_898_70">
<rect width="61" height="32" fill="white" transform="translate(331 28)"/>
</clipPath>
</defs>
</svg>
